<svg width="95" height="74" viewBox="0 0 95 74" fill="none" xmlns="http://www.w3.org/2000/svg">
<path d="M94.5 37C94.5 22.4714 86.1262 9.89863 73.9418 3.84469C64.0509 -1.06964 52.9412 4.05513 43.0236 8.91519C24.7157 17.8868 -0.827075 22.5811 -17 -9.74764e-06L-17 74C3.3469 55.6591 26.1062 58.1235 42.1581 64.9183C52.8092 69.427 64.4655 75.1515 74.7016 69.7667C86.473 63.5743 94.5 51.2246 94.5 37Z" fill="#0C375C"/>
<path fill-rule="evenodd" clip-rule="evenodd" d="M72.9066 25.1462L67.239 19.4786L49.9785 36.739L55.6461 42.4066L55.6466 42.4061L67.24 53.9995L72.9076 48.3319L61.3143 36.7385L72.9066 25.1462Z" fill="#FFBC43"/>
</svg>
