<svg width="2000" height="859" viewBox="0 0 2000 859" fill="none" xmlns="http://www.w3.org/2000/svg">
<path d="M1025.15 0H2000V858.801H1025.15V0Z" fill="#FFBC43"/>
<path d="M240.477 467.862C236.932 461.153 227.872 451.485 213.298 438.856C175.089 453.063 131.366 454.642 82.1285 443.592L82.7193 608.157L0 590.99V194.969C35.845 185.103 75.8261 178.591 119.943 175.434C164.454 172.277 192.421 174.645 203.844 182.538C215.661 193.193 234.175 211.149 259.384 236.406C284.594 261.663 302.123 280.014 311.97 291.458C322.212 304.087 321.03 324.608 308.425 353.022C296.214 381.436 275.14 404.917 245.204 423.465C286.957 441.224 309.607 452.077 313.152 456.023C318.272 463.521 321.818 472.203 323.787 482.069C326.151 491.541 327.332 499.631 327.332 506.34C327.332 513.048 326.938 522.52 326.151 534.754C325.363 546.988 324.969 555.275 324.969 559.616C324.969 563.562 324.575 569.679 323.787 577.967C323.393 585.859 323.196 591.779 323.196 595.725C323.196 599.672 323.787 604.605 324.969 610.524C326.151 616.839 328.12 621.772 330.877 625.323C333.635 628.875 337.771 632.624 343.285 636.571C348.8 640.517 355.89 643.871 364.556 646.634C333.438 652.948 307.44 647.818 286.563 631.243C266.081 615.063 254.854 591.187 252.885 559.616C252.885 557.248 252.491 549.947 251.703 537.713C251.309 525.48 250.718 516.6 249.931 511.075C249.537 505.55 248.552 498.447 246.976 489.765C245.401 480.688 243.234 473.387 240.477 467.862ZM230.432 249.429C207.192 227.329 157.561 224.172 81.5376 239.958L82.1285 405.707C109.702 406.101 134.517 402.155 156.576 393.867C179.028 385.185 196.163 374.333 207.98 361.31C219.797 347.892 228.857 333.882 235.159 319.28C241.462 304.679 244.022 291.064 242.84 278.435C241.659 265.807 237.523 256.138 230.432 249.429Z" fill="#FFBC43"/>
<path d="M584.773 367.821C558.776 350.062 531.793 352.825 503.826 376.109C480.586 395.841 465.027 422.084 457.149 454.839C448.483 492.33 455.179 520.547 477.238 539.489C479.995 541.857 482.95 544.028 486.101 546.001C501.857 554.683 518.007 556.656 534.551 551.921C551.488 547.185 566.063 536.727 578.274 520.547C590.879 504.366 600.726 487.2 607.816 469.046C614.907 450.498 616.679 431.753 613.134 412.81C609.589 393.473 600.135 378.476 584.773 367.821ZM643.858 372.557C655.281 382.817 664.144 395.249 670.447 409.85C676.749 424.057 680.294 438.659 681.082 453.655C682.264 468.652 680.885 483.845 676.946 499.236C673.401 514.627 667.886 529.031 660.402 542.449C652.918 555.867 643.464 567.903 632.041 578.559C621.012 588.819 608.801 596.515 595.408 601.645C582.016 607.17 567.048 609.341 550.504 608.157C534.354 606.973 517.81 601.842 500.872 592.766C478.814 580.926 457.149 565.93 435.878 547.777C418.94 533.175 406.336 516.798 398.064 498.644C389.792 480.096 385.853 462.14 386.247 444.776C387.034 427.412 390.383 410.048 396.291 392.683C402.594 375.319 411.456 360.323 422.88 347.695C434.697 335.066 447.498 324.411 461.285 315.729C475.071 306.652 489.843 301.916 505.599 301.522C521.749 301.127 537.308 304.481 552.276 311.585C590.485 331.712 621.012 352.036 643.858 372.557Z" fill="#FFBC43"/>
<path d="M972.28 351.838L871.835 479.701L946.282 515.219C966.765 525.48 979.37 540.673 984.097 560.8C988.824 580.532 986.46 600.856 977.007 621.772C967.553 643.082 954.751 663.209 938.601 682.152C922.845 701.094 904.135 715.893 882.47 726.548C860.806 737.204 840.52 740.953 821.613 737.796C809.402 735.823 792.661 727.93 771.39 714.117C750.119 700.7 731.409 685.901 715.259 669.72L728.849 655.513C741.847 664.195 752.877 670.51 761.936 674.456C785.571 682.743 806.644 684.322 825.158 679.192C844.065 674.456 859.821 664.59 872.426 649.594C885.031 634.992 894.484 619.207 900.787 602.237C907.483 585.662 910.24 569.679 909.059 554.288C908.271 538.897 903.347 528.045 894.287 521.731C879.713 511.865 846.625 496.671 795.024 476.15H794.433L790.297 474.374L886.015 351.246H731.803L714.077 308.033H954.554L972.28 351.246H969.326L972.28 351.838Z" fill="#FFBC43"/>
<path d="M1063.83 335.749V278.53H1455.56V335.749H1407.04V680.851L1333.66 647.473V335.749H1189.28C1214.92 363.564 1232.47 393.365 1241.94 425.154C1251.8 456.545 1253.97 484.558 1248.45 509.194C1242.93 533.433 1231.49 553.698 1214.13 569.989C1196.77 585.883 1175.47 593.831 1150.22 593.831C1143.52 593.831 1133.06 586.281 1118.86 571.181C1104.66 556.082 1095.98 544.757 1092.82 537.208C1088.88 527.671 1089.27 512.969 1094.01 493.101C1099.14 473.234 1106.63 461.512 1116.49 457.935C1117.68 457.538 1123.2 460.518 1133.06 466.876C1143.32 473.234 1149.83 477.604 1152.59 479.989C1154.17 481.181 1155.35 482.571 1156.14 484.161C1156.93 485.353 1157.72 487.141 1158.51 489.525C1159.3 491.512 1159.89 493.101 1160.28 494.293C1160.68 495.088 1161.27 497.472 1162.06 501.446C1162.85 505.022 1163.44 507.605 1163.83 509.194C1181.19 483.366 1189.08 453.962 1187.5 420.981C1186.32 388.001 1176.65 359.59 1158.51 335.749H1063.83Z" fill="white"/>
<path d="M1450.42 335.749V278.53H1614.33V335.749H1568.77V680.851L1495.39 647.473V335.749H1450.42Z" fill="white"/>
<path d="M1606.97 335.749V278.53H1876.21V335.749H1798.1C1816.64 363.961 1827.09 392.571 1829.46 421.578C1832.22 450.187 1825.52 476.81 1809.34 501.446C1793.56 526.082 1769.1 544.559 1735.97 556.877C1764.77 598.996 1805.6 633.169 1858.46 659.394L1841.89 680.851C1823.74 670.52 1807.96 660.983 1794.55 652.242C1781.53 643.897 1765.75 632.771 1747.21 618.864C1728.67 604.956 1712.69 591.446 1699.28 578.334C1686.26 564.824 1673.44 548.93 1660.82 530.651C1648.19 512.373 1638.53 493.697 1631.82 474.624C1640.5 449.591 1649.57 431.511 1659.04 420.385C1662.59 416.015 1669.1 416.213 1678.57 420.981C1688.04 425.75 1696.52 431.71 1704.01 438.862C1706.78 441.644 1709.14 448.796 1711.11 460.32C1713.48 471.445 1715.85 479.79 1718.22 485.353C1734 480.187 1746.22 472.041 1754.9 460.916C1763.58 449.392 1768.71 436.478 1770.29 422.174C1771.87 407.869 1771.47 393.564 1769.1 379.259C1767.13 364.955 1763.38 350.451 1757.86 335.749H1606.97Z" fill="white"/>
</svg>
